<?xml version="1.0" encoding="UTF-8"?>
<svg width="20px" height="20px" viewBox="0 0 20 20" version="1.1" xmlns="http://www.w3.org/2000/svg" xmlns:xlink="http://www.w3.org/1999/xlink">
    <!-- Generator: sketchtool 50.2 (55047) - http://www.bohemiancoding.com/sketch -->
    <title>292E9BCD-F392-4A29-A01E-95AAAB504C12</title>
    <desc>Created with sketchtool.</desc>
    <defs></defs>
    <g id="Symbols" stroke="none" stroke-width="1" fill="none" fill-rule="evenodd">
        <g id="symbols" transform="translate(-382.000000, -5700.000000)" fill="#A2ACAF" fill-rule="nonzero">
            <g id="search/normal-withdata" transform="translate(20.000000, 5682.000000)">
                <g id="icon/clear" transform="translate(362.000000, 18.000000)">
                    <g id="cross-black-circular-button">
                        <path d="M10,0 C4.47686275,0 0,4.47686275 0,10 C0,15.5231373 4.47686275,20 10,20 C15.5224837,20 20,15.5224837 20,10 C20,4.47751634 15.5231373,0 10,0 Z M13.5356209,12.6518627 C13.78,12.8962418 13.78,13.2918627 13.5356209,13.5356209 C13.2912092,13.78 12.8956209,13.78 12.6518627,13.5356209 L10.0037582,10.8874837 L7.33748366,13.5537582 C7.09124183,13.7993791 6.69248366,13.7993791 6.44686275,13.5537582 C6.20062092,13.3075163 6.20062092,12.9087582 6.44686275,12.6631046 L9.11310458,9.99686275 L6.46496732,7.34872549 C6.22058824,7.10434641 6.22058824,6.70872549 6.46496732,6.465 C6.70934641,6.22062092 7.10496732,6.22062092 7.34869281,6.465 L9.99683007,9.11313725 L12.6824837,6.42751634 C12.9287255,6.18127451 13.327451,6.18127451 13.5731046,6.42751634 C13.8193464,6.67375817 13.8193464,7.07251634 13.5731046,7.31813725 L10.887451,10.0037908 L13.5356209,12.6518627 Z" id="Shape"></path>
                    </g>
                </g>
            </g>
        </g>
    </g>
</svg>