<?xml version="1.0" encoding="UTF-8"?>
<svg width="22px" height="22px" viewBox="0 0 22 22" version="1.1" xmlns="http://www.w3.org/2000/svg" xmlns:xlink="http://www.w3.org/1999/xlink">
    <!-- Generator: sketchtool 50.2 (55047) - http://www.bohemiancoding.com/sketch -->
    <title>080FD2BD-1BA5-47DD-89F2-F823AC9C80FD@2x</title>
    <desc>Created with sketchtool.</desc>
    <defs></defs>
    <g id="form" stroke="none" stroke-width="1" fill="none" fill-rule="evenodd">
        <g id="01-1_insured" transform="translate(-129.000000, -1591.000000)" fill="#1B72B1">
            <g id="full-textfield/normal" transform="translate(104.000000, 1532.000000)">
                <g id="textfield/normal" transform="translate(0.000000, 42.000000)">
                    <g id="calendar-field-5col">
                        <g id="search-icon" transform="translate(25.000000, 17.000000)">
                            <path d="M21.4615839,18.8616127 L16.6821966,14.0823133 C16.6567963,14.056913 16.6270015,14.0391591 16.6004586,14.0155166 C17.540885,12.588969 18.08976,10.8813481 18.08976,9.04496788 C18.08976,4.04954617 14.0402138,0 9.04487999,0 C4.04954617,0 0,4.04954617 0,9.04487999 C0,14.0401259 4.04945828,18.08976 9.0447921,18.08976 C10.8812602,18.08976 12.5887932,17.540885 14.0153409,16.6004586 C14.0389833,16.6269136 14.0566493,16.6567084 14.0820496,16.6821087 L18.8615248,21.4615839 C19.5795008,22.179472 20.7435201,22.179472 21.4615839,21.4615839 C22.179472,20.743608 22.179472,19.5795887 21.4615839,18.8616127 Z M9.04487999,14.9541852 C5.78116111,14.9541852 3.13548691,12.308511 3.13548691,9.04487999 C3.13548691,5.78116111 5.781249,3.13548691 9.04487999,3.13548691 C12.3084231,3.13548691 14.9541852,5.781249 14.9541852,9.04487999 C14.9541852,12.308511 12.3084231,14.9541852 9.04487999,14.9541852 Z" id="Shape"></path>
                        </g>
                    </g>
                </g>
            </g>
        </g>
    </g>
</svg>